<svg width="48" height="48" viewBox="0 0 48 48" fill="none" xmlns="http://www.w3.org/2000/svg">
<g clip-path="url(#clip0_213_14483)">
<rect width="48" height="48" fill="white" fill-opacity="0.01"/>
<path d="M24.0059 9.0022C24.4037 9.0022 24.7852 9.16023 25.0665 9.44154C25.3478 9.72284 25.5059 10.1044 25.5059 10.5022V16.5022C25.5059 16.9 25.3478 17.2816 25.0665 17.5629C24.7852 17.8442 24.4037 18.0022 24.0059 18.0022C23.608 18.0022 23.2265 17.8442 22.9452 17.5629C22.6639 17.2816 22.5059 16.9 22.5059 16.5022V10.5022C22.5059 10.1044 22.6639 9.72284 22.9452 9.44154C23.2265 9.16023 23.608 9.0022 24.0059 9.0022V9.0022ZM48.0059 33.0022C48.0059 33.4 47.8478 33.7816 47.5665 34.0629C47.2852 34.3442 46.9037 34.5022 46.5059 34.5022H40.5059C40.108 34.5022 39.7265 34.3442 39.4452 34.0629C39.1639 33.7816 39.0059 33.4 39.0059 33.0022C39.0059 32.6044 39.1639 32.2228 39.4452 31.9415C39.7265 31.6602 40.108 31.5022 40.5059 31.5022H46.5059C46.9037 31.5022 47.2852 31.6602 47.5665 31.9415C47.8478 32.2228 48.0059 32.6044 48.0059 33.0022ZM7.50586 34.5022C7.90368 34.5022 8.28521 34.3442 8.56652 34.0629C8.84782 33.7816 9.00586 33.4 9.00586 33.0022C9.00586 32.6044 8.84782 32.2228 8.56652 31.9415C8.28521 31.6602 7.90368 31.5022 7.50586 31.5022H1.50586C1.10803 31.5022 0.726504 31.6602 0.445199 31.9415C0.163895 32.2228 0.00585938 32.6044 0.00585938 33.0022C0.00585938 33.4 0.163895 33.7816 0.445199 34.0629C0.726504 34.3442 1.10803 34.5022 1.50586 34.5022H7.50586ZM40.9769 16.0312C41.2581 16.3125 41.416 16.694 41.416 17.0917C41.416 17.4894 41.2581 17.8709 40.9769 18.1522L36.7349 22.3942C36.5965 22.5375 36.431 22.6517 36.248 22.7303C36.065 22.809 35.8681 22.8503 35.669 22.8521C35.4698 22.8538 35.2723 22.8159 35.0879 22.7404C34.9036 22.665 34.7361 22.5536 34.5953 22.4128C34.4544 22.272 34.343 22.1045 34.2676 21.9201C34.1922 21.7358 34.1543 21.5383 34.156 21.3391C34.1577 21.1399 34.1991 20.9431 34.2777 20.7601C34.3563 20.5771 34.4706 20.4116 34.6139 20.2732L38.8559 16.0312C39.1372 15.75 39.5186 15.592 39.9164 15.592C40.3141 15.592 40.6956 15.75 40.9769 16.0312V16.0312ZM11.2769 22.3942C11.5598 22.6674 11.9387 22.8186 12.332 22.8152C12.7253 22.8118 13.1015 22.654 13.3796 22.3759C13.6577 22.0978 13.8155 21.7216 13.8189 21.3283C13.8223 20.935 13.6711 20.5561 13.3979 20.2732L9.15586 16.0312C9.01749 15.8879 8.85197 15.7737 8.66897 15.695C8.48596 15.6164 8.28913 15.5751 8.08996 15.5733C7.89079 15.5716 7.69327 15.6095 7.50893 15.685C7.32458 15.7604 7.15711 15.8718 7.01627 16.0126C6.87543 16.1534 6.76405 16.3209 6.68863 16.5053C6.61321 16.6896 6.57525 16.8871 6.57698 17.0863C6.57871 17.2855 6.62009 17.4823 6.69871 17.6653C6.77732 17.8483 6.89159 18.0138 7.03486 18.1522L11.2769 22.3942V22.3942ZM24.0059 21.0022C20.8233 21.0022 17.771 22.2665 15.5206 24.5169C13.2701 26.7674 12.0059 29.8196 12.0059 33.0022C12.0059 33.4 12.1639 33.7816 12.4452 34.0629C12.7265 34.3442 13.108 34.5022 13.5059 34.5022H34.5059C34.9037 34.5022 35.2852 34.3442 35.5665 34.0629C35.8478 33.7816 36.0059 33.4 36.0059 33.0022C36.0059 29.8196 34.7416 26.7674 32.4911 24.5169C30.2407 22.2665 27.1885 21.0022 24.0059 21.0022Z" fill="#CCD3E7"/>
</g>
<defs>
<clipPath id="clip0_213_14483">
<rect width="48" height="48" fill="white"/>
</clipPath>
</defs>
</svg>
