<svg width="49" height="48" viewBox="0 0 49 48" fill="none" xmlns="http://www.w3.org/2000/svg">
<g clip-path="url(#clip0_213_14452)">
<rect width="48" height="48" transform="translate(0.599976)" fill="white" fill-opacity="0.01"/>
<path d="M15.8219 1.6822C19.0769 0.797197 22.5359 0.00219727 24.6059 0.00219727C26.6759 0.00219727 30.1349 0.797197 33.3899 1.6822C36.7199 2.5822 40.0769 3.6472 42.0509 4.2922C42.8762 4.56475 43.6079 5.06459 44.1619 5.7343C44.7159 6.40401 45.0698 7.21642 45.1829 8.0782C46.9709 21.5092 42.8219 31.4632 37.7879 38.0482C35.6532 40.8651 33.1078 43.3458 30.2369 45.4072C29.2441 46.1205 28.1923 46.7478 27.0929 47.2822C26.2529 47.6782 25.3499 48.0022 24.6059 48.0022C23.8619 48.0022 22.9619 47.6782 22.1189 47.2822C21.0194 46.7478 19.9676 46.1205 18.9749 45.4072C16.1039 43.3457 13.5586 40.8651 11.4239 38.0482C6.38985 31.4632 2.24085 21.5092 4.02885 8.0782C4.14191 7.21642 4.49578 6.40401 5.0498 5.7343C5.60382 5.06459 6.33552 4.56475 7.16085 4.2922C10.0264 3.35262 12.9143 2.48237 15.8219 1.6822V1.6822Z" fill="#CCD3E7"/>
</g>
<defs>
<clipPath id="clip0_213_14452">
<rect width="48" height="48" fill="white" transform="translate(0.599976)"/>
</clipPath>
</defs>
</svg>
