<svg width="48" height="48" viewBox="0 0 48 48" fill="none" xmlns="http://www.w3.org/2000/svg">
<g clip-path="url(#clip0_213_14488)">
<rect width="48" height="48" fill="white" fill-opacity="0.01"/>
<path d="M21.0059 21.0022C21.0059 20.2065 21.3219 19.4435 21.8845 18.8809C22.4471 18.3183 23.2102 18.0022 24.0059 18.0022C24.8015 18.0022 25.5646 18.3183 26.1272 18.8809C26.6898 19.4435 27.0059 20.2065 27.0059 21.0022V24.0022H21.0059V21.0022Z" fill="#CCD3E7"/>
<path d="M27.8849 0.00219727H12.0059C10.4146 0.00219727 8.88844 0.634338 7.76322 1.75956C6.638 2.88477 6.00586 4.4109 6.00586 6.0022V42.0022C6.00586 43.5935 6.638 45.1196 7.76322 46.2448C8.88844 47.3701 10.4146 48.0022 12.0059 48.0022H36.0059C37.5972 48.0022 39.1233 47.3701 40.2485 46.2448C41.3737 45.1196 42.0059 43.5935 42.0059 42.0022V14.1232C42.0057 13.3276 41.6895 12.5647 41.1269 12.0022L30.0059 0.881197C29.4434 0.318549 28.6804 0.00236718 27.8849 0.00219727ZM28.5059 10.5022V4.5022L37.5059 13.5022H31.5059C30.7102 13.5022 29.9471 13.1861 29.3845 12.6235C28.8219 12.0609 28.5059 11.2978 28.5059 10.5022ZM30.0059 21.0022V24.2302C31.6259 24.7282 33.0059 26.0212 33.0059 27.9022V35.1022C33.0059 37.5502 30.6629 39.0022 28.5059 39.0022H19.5059C17.3489 39.0022 15.0059 37.5502 15.0059 35.1022V27.9022C15.0059 26.0212 16.3859 24.7282 18.0059 24.2302V21.0022C18.0059 19.4109 18.638 17.8848 19.7632 16.7596C20.8884 15.6343 22.4146 15.0022 24.0059 15.0022C25.5972 15.0022 27.1233 15.6343 28.2485 16.7596C29.3737 17.8848 30.0059 19.4109 30.0059 21.0022Z" fill="#CCD3E7"/>
</g>
<defs>
<clipPath id="clip0_213_14488">
<rect width="48" height="48" fill="white"/>
</clipPath>
</defs>
</svg>
