<svg width="49" height="48" viewBox="0 0 49 48" fill="none" xmlns="http://www.w3.org/2000/svg">
<g clip-path="url(#clip0_213_14470)">
<rect width="48" height="48" transform="translate(0.400024)" fill="white" fill-opacity="0.01"/>
<path d="M28.2849 0.00219727H12.4059C10.8146 0.00219727 9.28846 0.634338 8.16324 1.75956C7.03802 2.88477 6.40588 4.4109 6.40588 6.0022V42.0022C6.40588 43.5935 7.03802 45.1196 8.16324 46.2448C9.28846 47.3701 10.8146 48.0022 12.4059 48.0022H36.4059C37.9972 48.0022 39.5233 47.3701 40.6485 46.2448C41.7737 45.1196 42.4059 43.5935 42.4059 42.0022V14.1232C42.4057 13.3276 42.0895 12.5647 41.5269 12.0022L30.4059 0.881197C29.8434 0.318549 29.0805 0.00236718 28.2849 0.00219727ZM28.9059 10.5022V4.5022L37.9059 13.5022H31.9059C31.1102 13.5022 30.3472 13.1861 29.7846 12.6235C29.222 12.0609 28.9059 11.2978 28.9059 10.5022ZM19.9059 16.5022V18.4042L21.5529 17.4532C21.7235 17.3532 21.9123 17.2878 22.1083 17.261C22.3043 17.2343 22.5037 17.2465 22.6949 17.2971C22.8862 17.3476 23.0655 17.4355 23.2227 17.5557C23.3798 17.6758 23.5116 17.8259 23.6105 17.9972C23.7094 18.1685 23.7735 18.3577 23.799 18.5539C23.8245 18.7501 23.8109 18.9493 23.7591 19.1402C23.7073 19.3311 23.6182 19.5099 23.497 19.6663C23.3758 19.8226 23.2249 19.9534 23.0529 20.0512L21.4059 21.0022L23.0529 21.9532C23.2249 22.051 23.3758 22.1818 23.497 22.3381C23.6182 22.4945 23.7073 22.6732 23.7591 22.8642C23.8109 23.0551 23.8245 23.2543 23.799 23.4505C23.7735 23.6467 23.7094 23.8359 23.6105 24.0072C23.5116 24.1785 23.3798 24.3286 23.2227 24.4487C23.0655 24.5689 22.8862 24.6568 22.6949 24.7073C22.5037 24.7579 22.3043 24.7701 22.1083 24.7433C21.9123 24.7165 21.7235 24.6512 21.5529 24.5512L19.9059 23.6002V25.5022C19.9059 25.9 19.7478 26.2816 19.4665 26.5629C19.1852 26.8442 18.8037 27.0022 18.4059 27.0022C18.0081 27.0022 17.6265 26.8442 17.3452 26.5629C17.0639 26.2816 16.9059 25.9 16.9059 25.5022V23.6002L15.2589 24.5512C15.0882 24.6512 14.8995 24.7165 14.7035 24.7433C14.5075 24.7701 14.3081 24.7579 14.1169 24.7073C13.9256 24.6568 13.7463 24.5689 13.5891 24.4487C13.432 24.3286 13.3002 24.1785 13.2012 24.0072C13.1023 23.8359 13.0383 23.6467 13.0128 23.4505C12.9873 23.2543 13.0008 23.0551 13.0527 22.8642C13.1045 22.6732 13.1936 22.4945 13.3148 22.3381C13.436 22.1818 13.5869 22.051 13.7589 21.9532L15.4059 21.0022L13.7589 20.0512C13.4172 19.8509 13.1686 19.5235 13.0673 19.1406C12.9661 18.7576 13.0204 18.3502 13.2185 18.0072C13.4165 17.6641 13.7422 17.4134 14.1245 17.3096C14.5068 17.2058 14.9145 17.2574 15.2589 17.4532L16.9059 18.4042V16.5022C16.9059 16.1044 17.0639 15.7228 17.3452 15.4415C17.6265 15.1602 18.0081 15.0022 18.4059 15.0022C18.8037 15.0022 19.1852 15.1602 19.4665 15.4415C19.7478 15.7228 19.9059 16.1044 19.9059 16.5022ZM13.9059 30.0022H28.9059C29.3037 30.0022 29.6852 30.1602 29.9665 30.4415C30.2479 30.7228 30.4059 31.1044 30.4059 31.5022C30.4059 31.9 30.2479 32.2816 29.9665 32.5629C29.6852 32.8442 29.3037 33.0022 28.9059 33.0022H13.9059C13.5081 33.0022 13.1265 32.8442 12.8452 32.5629C12.5639 32.2816 12.4059 31.9 12.4059 31.5022C12.4059 31.1044 12.5639 30.7228 12.8452 30.4415C13.1265 30.1602 13.5081 30.0022 13.9059 30.0022ZM13.9059 36.0022H28.9059C29.3037 36.0022 29.6852 36.1602 29.9665 36.4415C30.2479 36.7228 30.4059 37.1044 30.4059 37.5022C30.4059 37.9 30.2479 38.2816 29.9665 38.5629C29.6852 38.8442 29.3037 39.0022 28.9059 39.0022H13.9059C13.5081 39.0022 13.1265 38.8442 12.8452 38.5629C12.5639 38.2816 12.4059 37.9 12.4059 37.5022C12.4059 37.1044 12.5639 36.7228 12.8452 36.4415C13.1265 36.1602 13.5081 36.0022 13.9059 36.0022Z" fill="#CCD3E7"/>
</g>
<defs>
<clipPath id="clip0_213_14470">
<rect width="48" height="48" fill="white" transform="translate(0.400024)"/>
</clipPath>
</defs>
</svg>
