<svg width="49" height="48" viewBox="0 0 49 48" fill="none" xmlns="http://www.w3.org/2000/svg">
<g clip-path="url(#clip0_213_14476)">
<rect width="48" height="48" transform="translate(0.799988)" fill="white" fill-opacity="0.01"/>
<path d="M0.811829 9.0022C0.811829 7.4109 1.44397 5.88477 2.56919 4.75956C3.69441 3.63434 5.22053 3.0022 6.81183 3.0022H42.8118C44.4031 3.0022 45.9293 3.63434 47.0545 4.75956C48.1797 5.88477 48.8118 7.4109 48.8118 9.0022V39.0022C48.8118 40.5935 48.1797 42.1196 47.0545 43.2448C45.9293 44.3701 44.4031 45.0022 42.8118 45.0022H6.81183C5.22053 45.0022 3.69441 44.3701 2.56919 43.2448C1.44397 42.1196 0.811829 40.5935 0.811829 39.0022V9.0022ZM3.81183 36.0022V39.0022C3.81183 39.7978 4.1279 40.5609 4.69051 41.1235C5.25312 41.6861 6.01618 42.0022 6.81183 42.0022H42.8118C43.6075 42.0022 44.3705 41.6861 44.9331 41.1235C45.4958 40.5609 45.8118 39.7978 45.8118 39.0022V28.5022L34.4808 22.6612C34.1995 22.5203 33.881 22.4714 33.5703 22.5215C33.2597 22.5715 32.9726 22.718 32.7498 22.9402L21.6198 34.0702L13.6398 28.7542C13.3517 28.5624 13.0061 28.4761 12.6616 28.51C12.3172 28.5439 11.995 28.6959 11.7498 28.9402L3.81183 36.0022ZM18.8118 16.5022C18.8118 15.3087 18.3377 14.1641 17.4938 13.3202C16.6499 12.4763 15.5053 12.0022 14.3118 12.0022C13.1184 12.0022 11.9738 12.4763 11.1298 13.3202C10.2859 14.1641 9.81183 15.3087 9.81183 16.5022C9.81183 17.6957 10.2859 18.8403 11.1298 19.6842C11.9738 20.5281 13.1184 21.0022 14.3118 21.0022C15.5053 21.0022 16.6499 20.5281 17.4938 19.6842C18.3377 18.8403 18.8118 17.6957 18.8118 16.5022Z" fill="#CCD3E7"/>
</g>
<defs>
<clipPath id="clip0_213_14476">
<rect width="48" height="48" fill="white" transform="translate(0.799988)"/>
</clipPath>
</defs>
</svg>
