<svg width="49" height="48" viewBox="0 0 49 48" fill="none" xmlns="http://www.w3.org/2000/svg">
<g clip-path="url(#clip0_213_14489)">
<rect width="48" height="48" transform="translate(0.199951)" fill="white" fill-opacity="0.01"/>
<path d="M30.2058 27.1522C32.1949 27.1522 34.1026 26.362 35.5091 24.9555C36.9156 23.549 37.7058 21.6413 37.7058 19.6522C37.7058 17.6631 36.9156 15.7554 35.5091 14.3489C34.1026 12.9424 32.1949 12.1522 30.2058 12.1522C28.2167 12.1522 26.309 12.9424 24.9025 14.3489C23.496 15.7554 22.7058 17.6631 22.7058 19.6522C22.7058 21.6413 23.496 23.549 24.9025 24.9555C26.309 26.362 28.2167 27.1522 30.2058 27.1522Z" fill="#CCD3E7"/>
<path d="M6.20581 3.0022C4.61451 3.0022 3.08839 3.63434 1.96317 4.75956C0.837952 5.88477 0.205811 7.4109 0.205811 9.0022V36.0022C0.205811 37.5935 0.837952 39.1196 1.96317 40.2448C3.08839 41.3701 4.61451 42.0022 6.20581 42.0022H42.2058C43.7971 42.0022 45.3232 41.3701 46.4485 40.2448C47.5737 39.1196 48.2058 37.5935 48.2058 36.0022V9.0022C48.2058 7.4109 47.5737 5.88477 46.4485 4.75956C45.3232 3.63434 43.7971 3.0022 42.2058 3.0022H6.20581ZM3.20581 9.0022C3.20581 8.20655 3.52188 7.44349 4.08449 6.88088C4.6471 6.31827 5.41016 6.0022 6.20581 6.0022H12.2058V12.0022H3.20581V9.0022ZM15.2058 39.0022V6.0022H42.2058C43.0015 6.0022 43.7645 6.31827 44.3271 6.88088C44.8897 7.44349 45.2058 8.20655 45.2058 9.0022V36.0022C45.2058 36.8572 44.8458 37.6312 44.2758 38.1772C42.6558 34.4842 38.6718 30.0022 30.2058 30.0022C21.0948 30.0022 17.1708 35.1922 15.8118 39.0022H15.2058ZM3.20581 33.0022H12.2058V39.0022H6.20581C5.41016 39.0022 4.6471 38.6861 4.08449 38.1235C3.52188 37.5609 3.20581 36.7978 3.20581 36.0022V33.0022ZM12.2058 30.0022H3.20581V24.0022H12.2058V30.0022ZM12.2058 21.0022H3.20581V15.0022H12.2058V21.0022Z" fill="#CCD3E7"/>
</g>
<defs>
<clipPath id="clip0_213_14489">
<rect width="48" height="48" fill="white" transform="translate(0.199951)"/>
</clipPath>
</defs>
</svg>
