<svg width="49" height="48" viewBox="0 0 49 48" fill="none" xmlns="http://www.w3.org/2000/svg">
<g clip-path="url(#clip0_213_14487)">
<rect width="48" height="48" transform="translate(0.599976)" fill="white" fill-opacity="0.01"/>
<path d="M28.4848 0.00219727H12.6058C11.0145 0.00219727 9.48841 0.634338 8.36319 1.75956C7.23798 2.88477 6.60583 4.4109 6.60583 6.0022V42.0022C6.60583 43.5935 7.23798 45.1196 8.36319 46.2448C9.48841 47.3701 11.0145 48.0022 12.6058 48.0022H36.6058C38.1971 48.0022 39.7233 47.3701 40.8485 46.2448C41.9737 45.1196 42.6058 43.5935 42.6058 42.0022V14.1232C42.6057 13.3276 42.2895 12.5647 41.7268 12.0022L30.6058 0.881197C30.0434 0.318549 29.2804 0.00236718 28.4848 0.00219727ZM29.1058 10.5022V4.5022L38.1058 13.5022H32.1058C31.3102 13.5022 30.5471 13.1861 29.9845 12.6235C29.4219 12.0609 29.1058 11.2978 29.1058 10.5022ZM14.1058 27.0022C13.708 27.0022 13.3265 26.8442 13.0452 26.5629C12.7639 26.2816 12.6058 25.9 12.6058 25.5022C12.6058 25.1044 12.7639 24.7228 13.0452 24.4415C13.3265 24.1602 13.708 24.0022 14.1058 24.0022H35.1058C35.5037 24.0022 35.8852 24.1602 36.1665 24.4415C36.4478 24.7228 36.6058 25.1044 36.6058 25.5022C36.6058 25.9 36.4478 26.2816 36.1665 26.5629C35.8852 26.8442 35.5037 27.0022 35.1058 27.0022H14.1058ZM12.6058 31.5022C12.6058 31.1044 12.7639 30.7228 13.0452 30.4415C13.3265 30.1602 13.708 30.0022 14.1058 30.0022H35.1058C35.5037 30.0022 35.8852 30.1602 36.1665 30.4415C36.4478 30.7228 36.6058 31.1044 36.6058 31.5022C36.6058 31.9 36.4478 32.2816 36.1665 32.5629C35.8852 32.8442 35.5037 33.0022 35.1058 33.0022H14.1058C13.708 33.0022 13.3265 32.8442 13.0452 32.5629C12.7639 32.2816 12.6058 31.9 12.6058 31.5022ZM14.1058 39.0022C13.708 39.0022 13.3265 38.8442 13.0452 38.5629C12.7639 38.2816 12.6058 37.9 12.6058 37.5022C12.6058 37.1044 12.7639 36.7228 13.0452 36.4415C13.3265 36.1602 13.708 36.0022 14.1058 36.0022H26.1058C26.5037 36.0022 26.8852 36.1602 27.1665 36.4415C27.4478 36.7228 27.6058 37.1044 27.6058 37.5022C27.6058 37.9 27.4478 38.2816 27.1665 38.5629C26.8852 38.8442 26.5037 39.0022 26.1058 39.0022H14.1058Z" fill="#CCD3E7"/>
</g>
<defs>
<clipPath id="clip0_213_14487">
<rect width="48" height="48" fill="white" transform="translate(0.599976)"/>
</clipPath>
</defs>
</svg>
