<svg width="49" height="48" viewBox="0 0 49 48" fill="none" xmlns="http://www.w3.org/2000/svg">
<g clip-path="url(#clip0_213_14482)">
<rect width="48" height="48" transform="translate(0.400024)" fill="white" fill-opacity="0.01"/>
<path d="M4.90588 6.0022C3.71241 6.0022 2.56782 6.4763 1.7239 7.32022C0.87999 8.16413 0.405884 9.30872 0.405884 10.5022V16.5022H18.4059C18.8037 16.5022 19.1852 16.6602 19.4665 16.9415C19.7478 17.2228 19.9059 17.6044 19.9059 18.0022C19.9059 18.7612 20.1459 19.9342 20.8239 20.8762C21.4449 21.7402 22.4949 22.5022 24.4059 22.5022C26.3169 22.5022 27.3669 21.7402 27.9879 20.8762C28.6659 19.9342 28.9059 18.7612 28.9059 18.0022C28.9059 17.6044 29.0639 17.2228 29.3452 16.9415C29.6265 16.6602 30.0081 16.5022 30.4059 16.5022H48.4059V10.5022C48.4059 9.30872 47.9318 8.16413 47.0879 7.32022C46.244 6.4763 45.0994 6.0022 43.9059 6.0022H4.90588Z" fill="#CCD3E7"/>
<path d="M48.4059 19.5022H31.7529C31.5377 20.627 31.0846 21.6928 30.4239 22.6282C29.2449 24.2662 27.2949 25.5022 24.4059 25.5022C21.5169 25.5022 19.5669 24.2662 18.3879 22.6282C17.7272 21.6928 17.2741 20.627 17.0589 19.5022H0.405884V37.5022C0.405884 38.6957 0.87999 39.8403 1.7239 40.6842C2.56782 41.5281 3.71241 42.0022 4.90588 42.0022H43.9059C45.0994 42.0022 46.244 41.5281 47.0879 40.6842C47.9318 39.8403 48.4059 38.6957 48.4059 37.5022V19.5022Z" fill="#CCD3E7"/>
</g>
<defs>
<clipPath id="clip0_213_14482">
<rect width="48" height="48" fill="white" transform="translate(0.400024)"/>
</clipPath>
</defs>
</svg>
