<svg width="49" height="48" viewBox="0 0 49 48" fill="none" xmlns="http://www.w3.org/2000/svg">
<g clip-path="url(#clip0_213_14485)">
<rect width="48" height="48" transform="translate(0.799988)" fill="white" fill-opacity="0.01"/>
<path d="M9.80585 42.0022C9.80585 42.0022 6.80585 42.0022 6.80585 39.0022C6.80585 36.0022 9.80585 27.0022 24.8058 27.0022C39.8058 27.0022 42.8058 36.0022 42.8058 39.0022C42.8058 42.0022 39.8058 42.0022 39.8058 42.0022H9.80585ZM24.8058 24.0022C27.1928 24.0022 29.482 23.054 31.1698 21.3662C32.8576 19.6783 33.8058 17.3891 33.8058 15.0022C33.8058 12.6152 32.8576 10.3261 31.1698 8.63824C29.482 6.95041 27.1928 6.0022 24.8058 6.0022C22.4189 6.0022 20.1297 6.95041 18.4419 8.63824C16.7541 10.3261 15.8058 12.6152 15.8058 15.0022C15.8058 17.3891 16.7541 19.6783 18.4419 21.3662C20.1297 23.054 22.4189 24.0022 24.8058 24.0022Z" fill="#CCD3E7"/>
</g>
<defs>
<clipPath id="clip0_213_14485">
<rect width="48" height="48" fill="white" transform="translate(0.799988)"/>
</clipPath>
</defs>
</svg>
