<svg width="49" height="48" viewBox="0 0 49 48" fill="none" xmlns="http://www.w3.org/2000/svg">
<g clip-path="url(#clip0_213_14484)">
<rect width="48" height="48" transform="translate(0.199951)" fill="white" fill-opacity="0.01"/>
<path d="M40.5318 7.6762C40.706 7.85031 40.8441 8.05703 40.9384 8.28455C41.0326 8.51207 41.0812 8.75593 41.0812 9.0022C41.0812 9.24847 41.0326 9.49233 40.9384 9.71984C40.8441 9.94736 40.706 10.1541 40.5318 10.3282L10.5318 40.3282C10.3577 40.5023 10.151 40.6405 9.92344 40.7347C9.69592 40.8289 9.45207 40.8774 9.20581 40.8774C8.95955 40.8774 8.7157 40.8289 8.48818 40.7347C8.26067 40.6405 8.05394 40.5023 7.87981 40.3282C7.70568 40.1541 7.56755 39.9473 7.47331 39.7198C7.37907 39.4923 7.33056 39.2485 7.33056 39.0022C7.33056 38.7559 7.37907 38.5121 7.47331 38.2846C7.56755 38.0571 7.70568 37.8503 7.87981 37.6762L37.8798 7.6762C38.0539 7.50204 38.2606 7.36388 38.4882 7.26962C38.7157 7.17536 38.9595 7.12685 39.2058 7.12685C39.4521 7.12685 39.6959 7.17536 39.9235 7.26962C40.151 7.36388 40.3577 7.50204 40.5318 7.6762ZM13.7058 18.0022C12.5123 18.0022 11.3677 17.5281 10.5238 16.6842C9.67992 15.8403 9.20581 14.6957 9.20581 13.5022C9.20581 12.3087 9.67992 11.1641 10.5238 10.3202C11.3677 9.4763 12.5123 9.0022 13.7058 9.0022C14.8993 9.0022 16.0439 9.4763 16.8878 10.3202C17.7317 11.1641 18.2058 12.3087 18.2058 13.5022C18.2058 14.6957 17.7317 15.8403 16.8878 16.6842C16.0439 17.5281 14.8993 18.0022 13.7058 18.0022ZM13.7058 21.0022C15.6949 21.0022 17.6026 20.212 19.0091 18.8055C20.4156 17.399 21.2058 15.4913 21.2058 13.5022C21.2058 11.5131 20.4156 9.60542 19.0091 8.1989C17.6026 6.79237 15.6949 6.0022 13.7058 6.0022C11.7167 6.0022 9.80903 6.79237 8.40251 8.1989C6.99599 9.60542 6.20581 11.5131 6.20581 13.5022C6.20581 15.4913 6.99599 17.399 8.40251 18.8055C9.80903 20.212 11.7167 21.0022 13.7058 21.0022ZM34.7058 39.0022C33.5123 39.0022 32.3677 38.5281 31.5238 37.6842C30.6799 36.8403 30.2058 35.6957 30.2058 34.5022C30.2058 33.3087 30.6799 32.1641 31.5238 31.3202C32.3677 30.4763 33.5123 30.0022 34.7058 30.0022C35.8993 30.0022 37.0439 30.4763 37.8878 31.3202C38.7317 32.1641 39.2058 33.3087 39.2058 34.5022C39.2058 35.6957 38.7317 36.8403 37.8878 37.6842C37.0439 38.5281 35.8993 39.0022 34.7058 39.0022ZM34.7058 42.0022C36.6949 42.0022 38.6026 41.212 40.0091 39.8055C41.4156 38.399 42.2058 36.4913 42.2058 34.5022C42.2058 32.5131 41.4156 30.6054 40.0091 29.1989C38.6026 27.7924 36.6949 27.0022 34.7058 27.0022C32.7167 27.0022 30.809 27.7924 29.4025 29.1989C27.996 30.6054 27.2058 32.5131 27.2058 34.5022C27.2058 36.4913 27.996 38.399 29.4025 39.8055C30.809 41.212 32.7167 42.0022 34.7058 42.0022Z" fill="#CCD3E7"/>
</g>
<defs>
<clipPath id="clip0_213_14484">
<rect width="48" height="48" fill="white" transform="translate(0.199951)"/>
</clipPath>
</defs>
</svg>
