<svg width="49" height="48" viewBox="0 0 49 48" fill="none" xmlns="http://www.w3.org/2000/svg">
<g clip-path="url(#clip0_213_14486)">
<rect width="48" height="48" transform="translate(0.599976)" fill="white" fill-opacity="0.01"/>
<path d="M6.60584 6.0022C6.60584 5.20655 6.92191 4.44349 7.48452 3.88088C8.04712 3.31827 8.81019 3.0022 9.60584 3.0022H23.3638C24.1594 3.00237 24.9224 3.31855 25.4848 3.8812L46.4848 24.8812C47.0473 25.4438 47.3632 26.2067 47.3632 27.0022C47.3632 27.7977 47.0473 28.5606 46.4848 29.1232L32.7268 42.8812C32.1643 43.4436 31.4013 43.7596 30.6058 43.7596C29.8103 43.7596 29.0474 43.4436 28.4848 42.8812L7.48484 21.8812C6.92219 21.3187 6.60601 20.5558 6.60584 19.7602V6.0022ZM17.1058 18.0022C18.2993 18.0022 19.4439 17.5281 20.2878 16.6842C21.1317 15.8403 21.6058 14.6957 21.6058 13.5022C21.6058 12.3087 21.1317 11.1641 20.2878 10.3202C19.4439 9.4763 18.2993 9.0022 17.1058 9.0022C15.9124 9.0022 14.7678 9.4763 13.9239 10.3202C13.0799 11.1641 12.6058 12.3087 12.6058 13.5022C12.6058 14.6957 13.0799 15.8403 13.9239 16.6842C14.7678 17.5281 15.9124 18.0022 17.1058 18.0022Z" fill="#CCD3E7"/>
<path d="M4.48484 23.3812C3.92219 22.8187 3.60601 22.0558 3.60584 21.2602V6.0022C2.81019 6.0022 2.04712 6.31827 1.48451 6.88088C0.921906 7.44349 0.605835 8.20655 0.605835 9.0022V22.7602C0.606005 23.5558 0.922187 24.3187 1.48484 24.8812L22.4848 45.8812C23.0474 46.4436 23.8103 46.7596 24.6058 46.7596C25.4013 46.7596 26.1643 46.4436 26.7268 45.8812L26.8558 45.7522L4.48484 23.3812Z" fill="#CCD3E7"/>
</g>
<defs>
<clipPath id="clip0_213_14486">
<rect width="48" height="48" fill="white" transform="translate(0.599976)"/>
</clipPath>
</defs>
</svg>
