<svg width="48" height="48" viewBox="0 0 48 48" fill="none" xmlns="http://www.w3.org/2000/svg">
<g clip-path="url(#clip0_213_14464)">
<rect width="48" height="48" fill="white" fill-opacity="0.01"/>
<path d="M21.0059 42.0022C21.0059 42.0022 18.0059 42.0022 18.0059 39.0022C18.0059 36.0022 21.0059 27.0022 33.0059 27.0022C45.0059 27.0022 48.0059 36.0022 48.0059 39.0022C48.0059 42.0022 45.0059 42.0022 45.0059 42.0022H21.0059ZM33.0059 24.0022C35.3928 24.0022 37.682 23.054 39.3698 21.3662C41.0576 19.6783 42.0059 17.3891 42.0059 15.0022C42.0059 12.6152 41.0576 10.3261 39.3698 8.63824C37.682 6.95041 35.3928 6.0022 33.0059 6.0022C30.6189 6.0022 28.3297 6.95041 26.6419 8.63824C24.9541 10.3261 24.0059 12.6152 24.0059 15.0022C24.0059 17.3891 24.9541 19.6783 26.6419 21.3662C28.3297 23.054 30.6189 24.0022 33.0059 24.0022Z" fill="#CCD3E7"/>
<path fill-rule="evenodd" clip-rule="evenodd" d="M15.6539 42.0022C15.2091 41.0656 14.9873 40.0388 15.0059 39.0022C15.0059 34.9372 17.0459 30.7522 20.8139 27.8422C18.9331 27.2627 16.9737 26.9793 15.0059 27.0022C3.00586 27.0022 0.00585938 36.0022 0.00585938 39.0022C0.00585938 42.0022 3.00586 42.0022 3.00586 42.0022H15.6539Z" fill="#CCD3E7"/>
<path d="M13.5059 24.0022C15.495 24.0022 17.4026 23.212 18.8092 21.8055C20.2157 20.399 21.0059 18.4913 21.0059 16.5022C21.0059 14.5131 20.2157 12.6054 18.8092 11.1989C17.4026 9.79237 15.495 9.0022 13.5059 9.0022C11.5167 9.0022 9.60908 9.79237 8.20256 11.1989C6.79604 12.6054 6.00586 14.5131 6.00586 16.5022C6.00586 18.4913 6.79604 20.399 8.20256 21.8055C9.60908 23.212 11.5167 24.0022 13.5059 24.0022Z" fill="#CCD3E7"/>
</g>
<defs>
<clipPath id="clip0_213_14464">
<rect width="48" height="48" fill="white"/>
</clipPath>
</defs>
</svg>
