<svg width="49" height="48" viewBox="0 0 49 48" fill="none" xmlns="http://www.w3.org/2000/svg">
<g clip-path="url(#clip0_213_14458)">
<rect width="48" height="48" transform="translate(0.400024)" fill="white" fill-opacity="0.01"/>
<path d="M0.405884 23.2822C0.405884 9.9052 10.8849 0.00219727 24.4059 0.00219727C37.9269 0.00219727 48.4059 9.9052 48.4059 23.2822C48.4059 36.6592 37.9269 46.5622 24.4059 46.5622C21.9759 46.5622 19.6479 46.2412 17.4579 45.6412C17.0332 45.523 16.5808 45.5548 16.1769 45.7312L11.4129 47.8372C11.1252 47.9641 10.8107 48.0184 10.497 47.9953C10.1834 47.9722 9.88026 47.8725 9.61422 47.7048C9.34818 47.5371 9.1274 47.3067 8.97128 47.0337C8.81517 46.7607 8.7285 46.4535 8.71888 46.1392L8.58688 41.8702C8.57776 41.6104 8.51588 41.3551 8.405 41.1199C8.29411 40.8847 8.13655 40.6746 7.94188 40.5022C3.27388 36.3262 0.405884 30.2782 0.405884 23.2822ZM17.0439 18.9052L9.99388 30.0892C9.31888 31.1632 10.6359 32.3722 11.6469 31.6072L19.2219 25.8592C19.471 25.67 19.775 25.567 20.0879 25.5659C20.4007 25.5649 20.7054 25.6657 20.9559 25.8532L26.5629 30.0592C26.9607 30.3575 27.416 30.5702 27.9001 30.6838C28.3843 30.7975 28.8867 30.8095 29.3757 30.7194C29.8647 30.6292 30.3297 30.4386 30.7414 30.1598C31.1532 29.8809 31.5027 29.5198 31.7679 29.0992L38.8179 17.9152C39.4959 16.8412 38.1759 15.6322 37.1649 16.3972L29.5899 22.1452C29.3407 22.3344 29.0367 22.4374 28.7239 22.4385C28.411 22.4395 28.1063 22.3387 27.8559 22.1512L22.2489 17.9422C21.8511 17.6439 21.3957 17.4312 20.9116 17.3176C20.4275 17.2039 19.9251 17.1918 19.4361 17.282C18.9471 17.3722 18.4821 17.5628 18.0703 17.8416C17.6586 18.1205 17.3091 18.4816 17.0439 18.9022V18.9052Z" fill="#CCD3E7"/>
</g>
<defs>
<clipPath id="clip0_213_14458">
<rect width="48" height="48" fill="white" transform="translate(0.400024)"/>
</clipPath>
</defs>
</svg>
