<svg width="49" height="48" viewBox="0 0 49 48" fill="none" xmlns="http://www.w3.org/2000/svg">
<g clip-path="url(#clip0_213_14440)">
<rect width="48" height="48" transform="translate(0.799988)" fill="white" fill-opacity="0.01"/>
<path fill-rule="evenodd" clip-rule="evenodd" d="M24.6978 4.5832C15.7668 4.5832 7.98484 9.6952 5.73784 16.9582H4.08783C3.65046 16.9587 3.21849 17.0548 2.82217 17.2398C2.42585 17.4248 2.07478 17.6942 1.79355 18.0292C1.51231 18.3641 1.30772 18.7565 1.19411 19.1789C1.0805 19.6013 1.06061 20.0433 1.13584 20.4742L1.89784 24.8542C2.07943 25.8984 2.62376 26.845 3.43491 27.5272C4.24606 28.2093 5.27196 28.5833 6.33184 28.5832H7.12084C8.02084 30.1222 9.18484 31.5172 10.5558 32.7292L8.36883 40.1602C8.30307 40.3839 8.29038 40.6199 8.33177 40.8494C8.37317 41.0789 8.4675 41.2956 8.60728 41.4823C8.74707 41.669 8.92845 41.8205 9.13703 41.9248C9.3456 42.0291 9.57563 42.0833 9.80883 42.0832H15.8088C16.1183 42.0832 16.4203 41.9875 16.6732 41.8092C16.9262 41.6309 17.1178 41.3787 17.2218 41.0872L18.6678 37.0342C20.5728 37.5532 22.5978 37.8352 24.7008 37.8352C26.8218 37.8352 28.8648 37.5502 30.7848 37.0192L32.4138 41.1352C32.5245 41.4149 32.7167 41.6548 32.9655 41.8238C33.2142 41.9929 33.5081 42.0832 33.8088 42.0832H39.8088C40.0429 42.083 40.2737 42.0279 40.4826 41.9226C40.6916 41.8172 40.8731 41.6644 41.0124 41.4763C41.1518 41.2883 41.2452 41.0702 41.2852 40.8396C41.3252 40.609 41.3107 40.3722 41.2428 40.1482L38.9598 32.6302C42.2358 29.6872 44.3058 25.6792 44.3058 21.2092C44.3058 20.7742 44.2848 20.3392 44.2458 19.9162C45.0288 19.5862 45.7698 19.1182 46.3608 18.5842C47.3058 19.5022 48.8058 19.5022 48.8058 17.3332C48.8058 18.0022 47.3058 18.0022 47.4228 17.2552C47.5489 17.0144 47.6398 16.7568 47.6928 16.4902C47.7634 16.1427 47.7448 15.7831 47.6389 15.4447C47.5329 15.1064 47.343 14.8003 47.0868 14.5552C46.8167 14.2767 46.4612 14.0966 46.0769 14.0433C45.6926 13.99 45.3015 14.0667 44.9658 14.2612C44.6572 14.4318 44.3939 14.6739 44.1981 14.9673C44.0024 15.2606 43.8799 15.5967 43.8408 15.9472C43.7688 16.6762 44.0868 17.3872 44.8008 17.9092C44.5531 18.0805 44.2934 18.2339 44.0238 18.3682C42.4218 10.3762 34.1718 4.5832 24.6978 4.5832V4.5832ZM46.2168 16.2112C46.1634 16.4393 46.0633 16.6538 45.9228 16.8412C45.8779 16.8178 45.8339 16.7928 45.7908 16.7662C45.3528 16.4962 45.3198 16.2412 45.3348 16.0972C45.3496 15.9896 45.3889 15.8868 45.4498 15.7968C45.5107 15.7068 45.5914 15.632 45.6858 15.5782C45.8328 15.4972 45.9258 15.5152 46.0248 15.6142C46.1082 15.6867 46.1702 15.7807 46.2041 15.8859C46.2379 15.9912 46.2423 16.1036 46.2168 16.2112V16.2112ZM19.2198 14.2612C21.0014 13.7537 22.8454 13.4982 24.6978 13.5022C26.6958 13.5022 28.6068 13.7932 30.3768 14.3212C30.5669 14.3823 30.7672 14.4049 30.9661 14.3875C31.165 14.3702 31.3584 14.3134 31.535 14.2204C31.7117 14.1273 31.8679 14 31.9947 13.8458C32.1215 13.6915 32.2162 13.5136 32.2733 13.3223C32.3304 13.131 32.3488 12.9302 32.3273 12.7318C32.3058 12.5333 32.2449 12.3411 32.1482 12.1665C32.0515 11.9918 31.9209 11.8383 31.764 11.7148C31.6072 11.5912 31.4273 11.5003 31.2348 11.4472C29.1132 10.8166 26.9112 10.4983 24.6978 10.5022C22.4958 10.5022 20.3748 10.8112 18.3918 11.3782C18.0091 11.488 17.6857 11.7453 17.4927 12.0936C17.2998 12.4418 17.253 12.8525 17.3628 13.2352C17.4726 13.6179 17.73 13.9413 18.0782 14.1343C18.4265 14.3273 18.8371 14.374 19.2198 14.2642V14.2612ZM15.8058 18.7522C15.8058 19.3489 15.5688 19.9212 15.1468 20.3432C14.7249 20.7651 14.1526 21.0022 13.5558 21.0022C12.9591 21.0022 12.3868 20.7651 11.9648 20.3432C11.5429 19.9212 11.3058 19.3489 11.3058 18.7522C11.3058 18.1555 11.5429 17.5832 11.9648 17.1612C12.3868 16.7393 12.9591 16.5022 13.5558 16.5022C14.1526 16.5022 14.7249 16.7393 15.1468 17.1612C15.5688 17.5832 15.8058 18.1555 15.8058 18.7522V18.7522Z" fill="#CCD3E7"/>
</g>
<defs>
<clipPath id="clip0_213_14440">
<rect width="48" height="48" fill="white" transform="translate(0.799988)"/>
</clipPath>
</defs>
</svg>
