<svg width="49" height="48" viewBox="0 0 49 48" fill="none" xmlns="http://www.w3.org/2000/svg">
<g clip-path="url(#clip0_213_14446)">
<rect width="48" height="48" transform="translate(0.199951)" fill="white" fill-opacity="0.01"/>
<path d="M6.20581 6.0022C6.20581 4.4109 6.83795 2.88477 7.96317 1.75956C9.08839 0.634338 10.6145 0.00219727 12.2058 0.00219727H36.2058C37.7971 0.00219727 39.3232 0.634338 40.4485 1.75956C41.5737 2.88477 42.2058 4.4109 42.2058 6.0022V42.0022C42.2058 43.5935 41.5737 45.1196 40.4485 46.2448C39.3232 47.3701 37.7971 48.0022 36.2058 48.0022H12.2058C10.6145 48.0022 9.08839 47.3701 7.96317 46.2448C6.83795 45.1196 6.20581 43.5935 6.20581 42.0022V6.0022ZM19.7058 6.0022C19.308 6.0022 18.9265 6.16023 18.6452 6.44154C18.3638 6.72284 18.2058 7.10437 18.2058 7.5022C18.2058 7.90002 18.3638 8.28155 18.6452 8.56286C18.9265 8.84416 19.308 9.0022 19.7058 9.0022H28.7058C29.1036 9.0022 29.4852 8.84416 29.7665 8.56286C30.0478 8.28155 30.2058 7.90002 30.2058 7.5022C30.2058 7.10437 30.0478 6.72284 29.7665 6.44154C29.4852 6.16023 29.1036 6.0022 28.7058 6.0022H19.7058ZM24.2058 33.0022C26.5928 33.0022 28.8819 32.054 30.5698 30.3662C32.2576 28.6783 33.2058 26.3891 33.2058 24.0022C33.2058 21.6152 32.2576 19.3261 30.5698 17.6382C28.8819 15.9504 26.5928 15.0022 24.2058 15.0022C21.8189 15.0022 19.5297 15.9504 17.8418 17.6382C16.154 19.3261 15.2058 21.6152 15.2058 24.0022C15.2058 26.3891 16.154 28.6783 17.8418 30.3662C19.5297 32.054 21.8189 33.0022 24.2058 33.0022V33.0022ZM39.2058 41.2672C36.6438 38.4772 32.0748 36.0022 24.2058 36.0022C16.3368 36.0022 11.7678 38.4802 9.20581 41.2672V42.0022C9.20581 42.7978 9.52188 43.5609 10.0845 44.1235C10.6471 44.6861 11.4102 45.0022 12.2058 45.0022H36.2058C37.0015 45.0022 37.7645 44.6861 38.3271 44.1235C38.8897 43.5609 39.2058 42.7978 39.2058 42.0022V41.2672V41.2672Z" fill="#CCD3E7"/>
</g>
<defs>
<clipPath id="clip0_213_14446">
<rect width="48" height="48" fill="white" transform="translate(0.199951)"/>
</clipPath>
</defs>
</svg>
